# xmcd CD database file
#
# Track frame offsets:
#	150
#	38913
#	98365
#	136448
#	160525
#	192239
#	222801
#	255610
#	274918
#
# Disc length: 4037 seconds
#
# Revision: 2
# Processed by: cddbd v1.5.1PL0 Copyright (c) Steve Scherf et al.
# Submitted via: CDex 1.51
#
DISCID=750fc309
DTITLE=Avalon Sound Orchestra - Fountains
DYEAR=2000
DGENRE=Soundtrack
TTITLE0=Fountain of Faith
TTITLE1=See The Light
TTITLE2=Tradition
TTITLE3=Fountain of Hope
TTITLE4=Kisses in the Moonliglence
TTITLE5=Endlessy into the Future
TTITLE6=Harmony
TTITLE7=Kisses In The Moonlight
TTITLE8=Children
EXTD=YEAR: 2000
EXTT0=
EXTT1=
EXTT2=
EXTT3=
EXTT4=
EXTT5=
EXTT6=
EXTT7=
EXTT8=
PLAYORDER=
